<svg height="470pt" viewBox="0 0 470 470" width="470pt" xmlns="http://www.w3.org/2000/svg"><g fill="#fedb41"><path d="m355.390625 235c0 66.488281-53.902344 120.390625-120.390625 120.390625s-120.390625-53.902344-120.390625-120.390625 53.902344-120.390625 120.390625-120.390625 120.390625 53.902344 120.390625 120.390625zm0 0"/><path d="m235 71c-5.523438 0-10-4.476562-10-10v-51c0-5.523438 4.476562-10 10-10s10 4.476562 10 10v51c0 5.523438-4.476562 10-10 10zm0 0"/><path d="m235 470c-5.523438 0-10-4.476562-10-10v-51c0-5.523438 4.476562-10 10-10s10 4.476562 10 10v51c0 5.523438-4.476562 10-10 10zm0 0"/><path d="m460 245h-51c-5.523438 0-10-4.476562-10-10s4.476562-10 10-10h51c5.523438 0 10 4.476562 10 10s-4.476562 10-10 10zm0 0"/><path d="m61 245h-51c-5.523438 0-10-4.476562-10-10s4.476562-10 10-10h51c5.523438 0 10 4.476562 10 10s-4.476562 10-10 10zm0 0"/><path d="m358.191406 121.808594c-4.046875 0-7.691406-2.433594-9.238281-6.171875-1.550781-3.738281-.695313-8.039063 2.164063-10.898438l35.472656-35.46875c3.910156-3.875 10.21875-3.863281 14.109375.03125 3.894531 3.890625 3.90625 10.199219.03125 14.109375l-35.46875 35.472656c-1.875 1.875-4.417969 2.929688-7.070313 2.925782zm0 0"/><path d="m76.339844 403.660156c-4.042969 0-7.691406-2.4375-9.238282-6.171875-1.546874-3.738281-.691406-8.039062 2.167969-10.898437l35.46875-35.472656c3.910157-3.875 10.21875-3.859376 14.113281.03125 3.890626 3.894531 3.90625 10.203124.03125 14.113281l-35.472656 35.46875c-1.871094 1.878906-4.417968 2.933593-7.070312 2.929687zm0 0"/><path d="m393.660156 403.660156c-2.652344.003906-5.199218-1.050781-7.070312-2.929687l-35.472656-35.46875c-3.875-3.910157-3.859376-10.21875.03125-14.113281 3.894531-3.890626 10.203124-3.90625 14.113281-.03125l35.46875 35.472656c2.859375 2.859375 3.714843 7.160156 2.167969 10.898437-1.546876 3.734375-5.195313 6.171875-9.238282 6.171875zm0 0"/><path d="m111.808594 121.808594c-2.652344.003906-5.195313-1.050782-7.070313-2.925782l-35.46875-35.472656c-3.875-3.910156-3.863281-10.21875.03125-14.109375 3.890625-3.894531 10.199219-3.90625 14.109375-.03125l35.472656 35.46875c2.859376 2.859375 3.714844 7.160157 2.164063 10.898438-1.546875 3.738281-5.191406 6.171875-9.238281 6.171875zm0 0"/></g></svg>